<svg xmlns="http://www.w3.org/2000/svg" viewBox="0 0 367.17 279.69"><defs><style>.cls-1{fill:#e95420;}.cls-2{fill:#fff;}</style></defs><title>Artboard 1</title><g id="Layer_8" data-name="Layer 8"><path class="cls-1" d="M145.45,54.26l-.75-.21-4.6-11,.65-29.32.22-.4L153.68,4.9l.78.43-.65,25.28,6.46,12.59-.16.44Z"/><polygon class="cls-1" points="326.43 13.95 303.95 8.09 303.6 8.13 283.4 18.22 283.18 18.44 273.25 37.33 273.2 37.65 275.84 52.92 277.92 64.7 279.87 76.75 280.17 77.13 315.21 64.67 315.4 64.31 316.37 47.11 326.78 14.59 326.43 13.95"/><path class="cls-2" d="M229.26,82.57h0l-14.38-.69L203.8,91l-.65,4.88-1.3,13,6.84-6.19h14l12.38-12.38,7-7.2Zm-14.42,17.55a15,15,0,0,1-2-7.63,13.28,13.28,0,0,1,2.46-7.67,15,15,0,0,1,2.3,7.8A11.79,11.79,0,0,1,214.84,100.12Z"/><polygon class="cls-1" points="141.5 168.5 157.87 170.49 146.46 157.46 141.5 168.5"/><polygon class="cls-1" points="131.72 130.82 130.5 135.09 137.83 140.57 139.54 135.06 131.72 130.82"/><polygon class="cls-1" points="152.65 139.76 160.99 136.04 158.3 131.29 150.05 134.98 152.65 139.76"/><path class="cls-2" d="M144.43,90.18c0-3.33.85-4.84,1.76-6.05,1.69,2.52,1.68,7.3,1.68,7.3l3.48-6.3-7.73-8.48-4.54,13.59,3.15,11.94,3.44-6.43A22,22,0,0,1,144.43,90.18Z"/></g><g id="Layer_2_copy_2" data-name="Layer 2 copy 2"><path class="cls-1" d="M172,190.7h-.12L146,187.41,132.1,170l7.66,1.46,6.62-14.56,13.9,15.89,28.18-3.12.92,10.4Zm-25.64-3.9L171.8,190l16.9-10.33-.83-9.34L160,173.44l-13.46-15.39-6.41,14.11-6.44-1.23Z"/><polygon class="cls-1" points="204.01 91.25 203.6 90.75 214.49 81.78 205.35 58.65 205.95 58.41 215.27 81.98 204.01 91.25"/><polygon class="cls-1" points="242.07 83.18 241.93 83.18 214.87 82.2 214.89 81.55 241.81 82.52 257.42 67.17 257.87 67.63 242.07 83.18"/><path class="cls-1" d="M257.85,67.69l-.61-.2,4.56-28.35.09-.18L283.4,18.38l.51.39Zm4.57-28.33-4.23,26.3,24.19-45.41Z"/><path class="cls-1" d="M276.51,121.18l-.38-.35,3.78-44.27.21-.27,16-5.9L314.79,64l.41.44-23.46,54.08-.25.19Zm4-44.35-3.73,43.64,14.4-2.4,23.1-53.24-18,6.17Z"/><path class="cls-1" d="M280.48,77l-.44-.25-6.84-39.1,0-.21,10.1-18.89.15-.14,20.2-10.1.22,0,22.48,5.86.23.42L316.2,47.08l-1,17.22-.22.29L296.32,71Zm-6.62-39.35,6.76,38.6,15.48-5.83,18.49-6.34,1-17.13,10.32-32.26-22-5.74-20,10Z"/><polygon class="cls-1" points="202.48 157.58 201.87 157.34 211.89 131.8 200.93 120.84 188.44 141.34 187.89 141 200.59 120.15 201.1 120.09 212.5 131.49 212.58 131.84 202.48 157.58"/><rect class="cls-1" x="194.84" y="138.57" width="0.65" height="21.49" transform="translate(-50.16 163.36) rotate(-40.69)"/><path class="cls-1" d="M273.41,145.78l-61.32-14,0-.64L291.39,118l.32.5-18,27.1Zm-59.56-14.23,59.49,13.54,17.42-26.28-14.25,2.37Z"/><polygon class="cls-1" points="188.82 179.32 187.84 170.04 187.95 169.76 202.05 157.08 202.48 157.57 188.5 170.13 189.47 179.25 188.82 179.32"/><polygon class="cls-1" points="160.01 173.44 145.8 157.19 157.42 156.17 177.63 140.52 177.75 140.52 188.18 140.84 188.16 141.49 177.85 141.17 157.66 156.8 157.57 156.81 147.13 157.73 160.28 172.75 188.03 169.69 202.04 157.08 202.48 157.56 188.31 170.31 188.2 170.32 160.01 173.44"/><path class="cls-1" d="M140.14,172.16l-12.49-2.36-.06-.18L122,152.87l4.88-9.75L134,154.24l13,3Zm-12-2.93,11.62,2.2L146,157.69l-12.44-2.88L127,144.43l-4.24,8.49Z"/><polygon class="cls-1" points="176.1 117.78 175.47 117.64 182.54 84 182.6 83.94 205.48 58.25 248.1 33.21 213.33 28.83 182.89 36.56 156.65 58.27 151.85 85.18 136 114.28 135.43 113.97 151.26 84.92 156.05 57.92 182.66 35.95 213.28 28.17 213.35 28.18 250.08 32.8 205.86 58.78 183.14 84.31 176.1 117.78"/><rect class="cls-1" x="145.05" y="69.11" width="0.65" height="18.25" transform="translate(-15.73 114.28) rotate(-40.9)"/><path class="cls-1" d="M159.92,43.74l-.39-.16L153,30.72l.65-25.41.57-.22,28.45,31.06-.14.53Zm-6.29-13.09L160,43l21.83-6.82L154.26,6.13Z"/><path class="cls-1" d="M145.35,54.12l-.49-.14L140.27,43.1l.66-29.32.14-.27L153.78,5l.5.28-.65,25.33,6.48,12.63-.1.42ZM140.93,43l4.37,10.32,14.1-10L153,30.72l.64-24.79-12.05,8Z"/><polygon class="cls-1" points="133.22 154.81 126.64 143.94 126.63 143.63 129.06 138.9 131.44 130.55 131.9 130.35 139.72 134.59 139.41 135.16 131.95 131.11 129.66 139.14 127.29 143.76 133.78 154.47 133.22 154.81"/><path class="cls-1" d="M146.84,157.88l-13.49-3.11L139.18,135,132,131.11l-2.43,8.12-4.12-6.55v-7.6l8.11-8.57,9.68,7.66Zm-12.67-3.59L146.09,157l-3.52-32.53-9-7.12-7.52,7.94v7.17l3.26,5.18,2.24-7.52,8.4,4.55Z"/><path class="cls-1" d="M146.17,157.81l-3.6-33.3-9.48-7.5,2.45-3.15,10.18-6.57h17.47l12.91,10.26.34,7.07-4.87,9.95-9.28,4.3-4.12-7.17-7.67,3.43,10.2,19.34-3,2.33h-.09ZM134,116.9l9.2,7.27,3.56,32.94,10.67-.94,2.45-1.88L149.6,134.82l8.84-3.95,4.12,7.16,8.53-3.95,4.69-9.59-.31-6.62L163,107.94H145.91l-10,6.43Z"/><polygon class="cls-1" points="133.22 117.01 129.95 98.9 129.97 98.82 144.74 53.43 145.36 53.63 130.62 98.95 133.86 116.89 133.22 117.01"/><polygon class="cls-1" points="217.08 219.58 216.52 219.44 207.45 185.1 188.1 180.91 188.23 180.27 207.78 184.51 208.03 184.74 217 218.69 263.15 167.05 272.53 146.53 257.66 158.09 189.4 179.92 189.21 179.3 257.4 157.49 273.17 145.2 273.67 145.59 263.67 167.45 217.08 219.58"/><polygon class="cls-1" points="219.18 274.08 218.79 273.78 216.51 219.37 217.16 219.35 219.42 273.37 249.68 267.26 249.8 267.89 219.18 274.08"/><path class="cls-1" d="M249.92,267.85l-.5-.34,23.78-122,.62-.07,36.81,83-.12.41ZM273.64,146.6,250.2,266.89l59.73-38.53Z"/><polygon class="cls-1" points="310.58 228.69 310.04 228.61 273.23 145.54 273.25 145.22 291.17 118.19 291.71 118.55 273.89 145.44 310.42 227.87 344.5 187.37 318.54 124.1 296.88 106.13 297.3 105.63 319.01 123.65 319.11 123.78 345.17 187.31 345.12 187.64 310.58 228.69"/><path class="cls-1" d="M345.17,187.56h-.6L318.51,124l.5-.38,39.75,31.6.09.38Zm-25.59-62.63,25.3,61.66,13.28-31Z"/><rect class="cls-1" x="141.69" y="118.26" width="28.94" height="0.65" transform="translate(-34.29 71.93) rotate(-23.45)"/><polygon class="cls-1" points="176.16 124.87 176.06 124.23 200.57 120.04 203.65 90.65 204.3 90.72 201.19 120.35 200.93 120.64 176.16 124.87"/><rect class="cls-1" x="255.26" y="28.98" width="0.5" height="14.25" transform="translate(111.98 250.55) rotate(-64.25)"/></g><g id="OUTLINE"><path class="cls-1" d="M218.1,275.13l-2.33-55.71-9-33.59-18.18-3.94L172,191.53l-26.45-3.36-13-15.74-5.39-1.38-6-17.9,7.15-14.41-3.69-5.82-.06-8.17,7.79-8-3.2-18,14.72-45.1-4.44-10.37.73-30.14,14-9.4,27.78,31.58,31.25-7.95,36.18,4.5,12.38,6L282.91,17.8,303.58,7.38l24.15,6.27L317,47.11l-1,17.48L299,105.86,319.53,123l40.4,32.12-14.2,33-34.59,41.18-.14.09-60.77,39.21Zm-29.85-95.62,20.37,4.42L218,219.2l2.23,53.2,29.12-5.88,60.28-38.89,34.26-40.79,13.28-31-39.07-31.07-21.86-18.25,17.59-42.45,1-17.52,10-31.33-21-5.46-19.62,9.89-22.06,21L248.71,34.1l-35.39-4.4-32.17,8.18L153.76,6.74l-11.4,7.65-.68,28.5,4.57,10.7L131.44,99l3.31,18.57-8,8.14,0,6.6,4,6.34-7.3,14.72,5.28,15.85,4.92,1.26,12.9,15.62,24.81,3.15Z"/></g><g id="Whiskers"><polygon class="cls-1" points="198.89 134.26 198.72 133.27 339.06 110.1 339.22 111.09 198.89 134.26"/><path class="cls-1" d="M198.58,134.69l-.29-1.73,141.07-23.29.3,1.73-.38.06Zm.58-1.11,0,.25,139.59-23.05,0-.25Z"/><polygon class="cls-1" points="318.81 149.97 198.36 139.95 198.49 138.96 318.93 148.97 318.81 149.97"/><path class="cls-1" d="M319.13,150.37l-.35,0L197.94,140.29l.22-1.73.36,0,120.83,10ZM198.78,139.61l119.7,9.95,0-.24-119.7-10Z"/><rect class="cls-1" x="234.9" y="117.47" width="1" height="81.5" transform="translate(5.43 324.23) rotate(-69.73)"/><path class="cls-1" d="M273.68,173.29l-77.16-28.5.61-1.64,77.15,28.5Zm-76.19-28.94,75.75,28,.08-.23-75.75-28Z"/><polygon class="cls-1" points="221.15 187.02 190.87 156.04 191.59 155.34 221.86 186.32 221.15 187.02"/><path class="cls-1" d="M221.14,187.55,190.35,156l1.24-1.23,30.8,31.51Zm-29.74-31.5,29.75,30.44.18-.18-29.75-30.44Z"/><polygon class="cls-1" points="190.14 191.52 186.55 160.17 187.51 160 191.26 191.34 190.14 191.52"/><path class="cls-1" d="M189.82,192l-3.68-32.09,1.69-.3,3.84,32.09ZM187,160.47l3.51,30.62.37-.06-3.66-30.6Z"/><rect class="cls-1" x="177.35" y="161.48" width="1" height="39.97" transform="translate(-1.96 1.94) rotate(-0.62)"/><path class="cls-1" d="M177.19,201.83l-.44-40.72,1.75,0,.44,40.71Zm.32-40,.43,39.22h.25l-.43-39.21Z"/><rect class="cls-1" x="66.8" y="49.25" width="1" height="130.31" transform="translate(-63.42 137.4) rotate(-69.51)"/><path class="cls-1" d="M128.37,138.16,128,138,5.61,92.28l.61-1.64L129,136.52ZM6.57,91.84l121.36,45.35L128,137,6.66,91.61Z"/><rect class="cls-1" x="80.59" y="91.57" width="1" height="92.68" transform="matrix(0.11, -0.99, 0.99, 0.11, -65.07, 202.97)"/><path class="cls-1" d="M127.41,144,34.57,133.53l.2-1.74.37,0L127.6,142.3Zm-92-11.17,91.35,10.34,0-.25L35.43,132.62Z"/><rect class="cls-1" x="86.56" y="161.25" width="37.59" height="1" transform="translate(-53.7 52.37) rotate(-22.4)"/><path class="cls-1" d="M88,169.87l-.67-1.62,35.45-14.62.67,1.62Zm.31-1.21.1.23,34.06-14-.1-.23Z"/><rect class="cls-1" x="61.24" y="151.85" width="63.37" height="1" transform="translate(-16.1 11.08) rotate(-6.28)"/><path class="cls-1" d="M61.16,156.74,61,155l63.74-7,.19,1.74Zm.63-1.08,0,.25L124.06,149l0-.24Z"/><rect class="cls-1" x="94.32" y="171.29" width="34.24" height="1" transform="translate(-79.32 97.34) rotate(-35.71)"/><path class="cls-1" d="M97.75,182.71l-1-1.42,28.4-20.42,1,1.43Zm0-1.25.15.21,27.19-19.55-.15-.2Z"/></g><g id="Focus"><path class="cls-2" d="M98,110.71a.63.63,0,0,1,.51-.73h0a.62.62,0,0,1,.72.52h0a.62.62,0,0,1-.51.72h-.11A.63.63,0,0,1,98,110.71Zm5-.86a.62.62,0,0,1,.51-.72h0a.62.62,0,0,1,.72.51h0a.62.62,0,0,1-.51.72h-.1A.62.62,0,0,1,103,109.85Zm5-.85a.62.62,0,0,1,.51-.72h0a.62.62,0,0,1,.72.51h0a.62.62,0,0,1-.51.72h-.1A.63.63,0,0,1,108,109Zm5-.85a.62.62,0,0,1,.51-.72h0a.63.63,0,0,1,.73.51h0a.63.63,0,0,1-.51.72h-.11A.64.64,0,0,1,113,108.15Zm5-.86a.64.64,0,0,1,.52-.72h0a.62.62,0,0,1,.72.51h0a.63.63,0,0,1-.51.73h-.11A.63.63,0,0,1,118,107.29Zm5-.85a.62.62,0,0,1,.51-.72h0a.62.62,0,0,1,.72.51h0a.63.63,0,0,1-.51.72h-.11A.62.62,0,0,1,123,106.44Zm5-.85a.62.62,0,0,1,.51-.72h0a.62.62,0,0,1,.72.51h0a.62.62,0,0,1-.51.72h-.11A.62.62,0,0,1,128,105.59Zm5-.86a.62.62,0,0,1,.51-.72h0a.63.63,0,0,1,.72.51h0a.63.63,0,0,1-.51.73h-.11A.61.61,0,0,1,133,104.73Zm5-.85a.62.62,0,0,1,.51-.72h0a.62.62,0,0,1,.72.51h0a.62.62,0,0,1-.51.72h-.11A.61.61,0,0,1,138,103.88Zm5-.85a.62.62,0,0,1,.51-.72h0a.62.62,0,0,1,.72.51h0a.62.62,0,0,1-.51.72h-.11A.63.63,0,0,1,143,103Zm5-.86a.61.61,0,0,1,.51-.71h0a.62.62,0,0,1,.72.51h0a.62.62,0,0,1-.51.72h-.1A.63.63,0,0,1,148,102.17Zm5-.85a.62.62,0,0,1,.51-.72h0a.62.62,0,0,1,.72.51h0a.62.62,0,0,1-.51.72h-.11A.62.62,0,0,1,153,101.32Zm5-.85a.62.62,0,0,1,.51-.72h0a.62.62,0,0,1,.72.51h0a.62.62,0,0,1-.51.72h-.1A.63.63,0,0,1,158,100.47Zm5-.85a.63.63,0,0,1,.51-.73h0a.64.64,0,0,1,.73.52h0a.64.64,0,0,1-.52.72h-.1A.63.63,0,0,1,163,99.62Zm5-.86a.63.63,0,0,1,.51-.72h0a.63.63,0,0,1,.73.51h0a.63.63,0,0,1-.52.72h-.1A.62.62,0,0,1,168,98.76Zm5-.85a.63.63,0,0,1,.52-.72h0a.62.62,0,0,1,.72.51h0a.64.64,0,0,1-.52.72h-.1A.63.63,0,0,1,173,97.91Zm5-.85a.63.63,0,0,1,.51-.72h0a.63.63,0,0,1,.73.51h0a.62.62,0,0,1-.51.72h-.11A.64.64,0,0,1,178,97.06Zm5-.86a.62.62,0,0,1,.51-.72h0a.62.62,0,0,1,.72.51h0a.62.62,0,0,1-.51.72h-.11A.61.61,0,0,1,183,96.2Zm5-.85a.62.62,0,0,1,.51-.72h0a.62.62,0,0,1,.72.51h0a.62.62,0,0,1-.51.72h-.11A.62.62,0,0,1,188,95.35Zm5-.85a.62.62,0,0,1,.51-.72h0a.62.62,0,0,1,.72.51h0a.62.62,0,0,1-.51.72h-.11A.62.62,0,0,1,193,94.5Zm5-.86a.62.62,0,0,1,.51-.72h0a.63.63,0,0,1,.72.51h0a.63.63,0,0,1-.51.73h-.11A.61.61,0,0,1,198,93.64Z"/><path class="cls-2" d="M57.53,104.32a.64.64,0,0,1,.5-.74h0a.63.63,0,0,1,.73.5h0a.62.62,0,0,1-.49.73h-.12A.63.63,0,0,1,57.53,104.32Zm5-1a.63.63,0,0,1,.49-.74h0a.63.63,0,0,1,.74.49h0a.63.63,0,0,1-.5.74h-.12A.63.63,0,0,1,62.51,103.34Zm5-1a.62.62,0,0,1,.49-.73h0a.63.63,0,0,1,.74.49h0a.64.64,0,0,1-.5.74H68.1A.63.63,0,0,1,67.49,102.35Zm5-1a.62.62,0,0,1,.49-.73h0a.61.61,0,0,1,.73.49h0a.61.61,0,0,1-.49.73h0l-.12,0h0A.62.62,0,0,1,72.47,101.37Zm5-1a.63.63,0,0,1,.5-.73h0a.62.62,0,0,1,.73.49h0a.61.61,0,0,1-.49.73h-.13A.62.62,0,0,1,77.44,100.39Zm5-1a.61.61,0,0,1,.49-.73h0a.63.63,0,0,1,.74.49h0a.63.63,0,0,1-.5.73H83A.62.62,0,0,1,82.42,99.41Zm5-1a.63.63,0,0,1,.49-.74h0a.63.63,0,0,1,.73.5h0a.62.62,0,0,1-.49.73H88A.63.63,0,0,1,87.4,98.43Zm5-1a.62.62,0,0,1,.49-.73h0a.62.62,0,0,1,.73.49h0a.63.63,0,0,1-.49.74H93A.62.62,0,0,1,92.38,97.44Zm5-1a.63.63,0,0,1,.49-.73h0a.63.63,0,0,1,.74.49h0a.63.63,0,0,1-.49.74H98A.63.63,0,0,1,97.35,96.46Zm5-1a.61.61,0,0,1,.49-.73h0a.63.63,0,0,1,.74.49h0a.63.63,0,0,1-.5.73h0l-.12,0h0A.63.63,0,0,1,102.33,95.48Zm5-1a.61.61,0,0,1,.49-.73h0a.61.61,0,0,1,.73.49h0A.61.61,0,0,1,108,95h-.12A.62.62,0,0,1,107.31,94.5Zm5-1a.64.64,0,0,1,.5-.74h0a.64.64,0,0,1,.73.5h0A.62.62,0,0,1,113,94h-.13A.62.62,0,0,1,112.28,93.52Zm5-1a.63.63,0,0,1,.49-.74h0a.64.64,0,0,1,.74.49h0A.64.64,0,0,1,118,93h-.13A.63.63,0,0,1,117.26,92.54Zm5-1a.63.63,0,0,1,.49-.74h0a.61.61,0,0,1,.73.49h0a.63.63,0,0,1-.49.74h-.12A.63.63,0,0,1,122.24,91.56Zm5-1a.62.62,0,0,1,.49-.73h0a.62.62,0,0,1,.73.49h0a.63.63,0,0,1-.49.74h-.12A.62.62,0,0,1,127.22,90.57Z"/></g></svg>