<?xml version="1.0" encoding="UTF-8" standalone="no"?>
<!-- Created with Inkscape (http://www.inkscape.org/) -->

<svg
   width="210mm"
   height="297mm"
   viewBox="0 0 210 297"
   version="1.1"
   id="svg5"
   inkscape:version="1.1.2 (b8e25be833, 2022-02-05)"
   sodipodi:docname="drawing.svg"
   xmlns:inkscape="http://www.inkscape.org/namespaces/inkscape"
   xmlns:sodipodi="http://sodipodi.sourceforge.net/DTD/sodipodi-0.dtd"
   xmlns="http://www.w3.org/2000/svg"
   xmlns:svg="http://www.w3.org/2000/svg">
  <sodipodi:namedview
     id="namedview7"
     pagecolor="#ffffff"
     bordercolor="#666666"
     borderopacity="1.0"
     inkscape:pageshadow="2"
     inkscape:pageopacity="0.0"
     inkscape:pagecheckerboard="0"
     inkscape:document-units="mm"
     showgrid="false"
     inkscape:zoom="1.0469406"
     inkscape:cx="792.30854"
     inkscape:cy="877.79571"
     inkscape:window-width="1920"
     inkscape:window-height="1017"
     inkscape:window-x="-8"
     inkscape:window-y="-8"
     inkscape:window-maximized="1"
     inkscape:current-layer="g15" />
  <defs
     id="defs2" />
  <g
     inkscape:label="Layer 1"
     inkscape:groupmode="layer"
     id="layer1">
    <g
       id="g15"
       inkscape:label="CV190-f12071"
       transform="matrix(0,0.23146818,0.24908588,0,1.1691512,2.2065593)">
      <g
         id="g17"
         transform="translate(983.2264,25.0681)">
        <path
           d="M 0,0 -0.162,0.43 -0.376,0.836 -0.639,1.212 -0.947,1.552 -1.296,1.851 -1.679,2.103 -2.091,2.306 -2.525,2.455 -2.974,2.549 -3.432,2.586 -3.891,2.565 -4.343,2.487 -4.782,2.353 -5.201,2.165 -5.592,1.926 -5.951,1.639 -6.271,1.31 -6.548,0.943 -6.776,0.545 -6.952,0.121 -7.074,-0.321 -7.14,-0.776 l -0.007,-0.459 0.049,-0.456 0.106,-0.447 0.162,-0.429 0.214,-0.406 0.263,-0.376 0.309,-0.34 0.348,-0.299 0.384,-0.253 0.411,-0.203 0.435,-0.149 0.449,-0.094 0.457,-0.037 0.459,0.021 0.452,0.078 0.439,0.134 0.419,0.189 0.392,0.239 0.359,0.286 0.32,0.329 0.276,0.367 0.228,0.398 0.177,0.424 0.121,0.443 0.066,0.454 0.008,0.459 -0.05,0.456 L 0,0 M -1.739,-0.532 -1.863,-0.227 -2.04,0.051 -2.263,0.293 -2.526,0.491 -2.82,0.639 -3.136,0.733 -3.464,0.768 -3.792,0.744 -4.111,0.662 -4.41,0.524 -4.68,0.335 -4.912,0.101 -5.098,-0.17 -5.233,-0.471 -5.311,-0.79 l -0.021,-0.329 0.039,-0.327 0.096,-0.315 0.151,-0.293 0.201,-0.261 0.244,-0.221 0.279,-0.174 0.307,-0.121 0.323,-0.064 0.329,-0.006 0.325,0.053 0.31,0.111 0.286,0.164 0.252,0.212 0.209,0.254 0.161,0.287 0.108,0.311 0.05,0.326 -0.01,0.329 -0.067,0.322"
           style="fill:none;stroke:#191924;stroke-width:0.354;stroke-linecap:butt;stroke-linejoin:miter;stroke-miterlimit:10;stroke-dasharray:none;stroke-opacity:1"
           id="path19" />
      </g>
      <g
         id="g21"
         transform="translate(803.7106,90.3897)">
        <path
           d="m 0,0 -0.069,0.486 -0.134,0.472 -0.198,0.45 -0.256,0.419 -0.311,0.38 -0.359,0.334 -0.402,0.282 -0.436,0.225 -0.463,0.164 -0.481,0.1 -0.489,0.033 m 0.862,-14.709 0.435,0.137 0.413,0.19 0.387,0.24 0.353,0.288 0.314,0.33 0.27,0.366 0.221,0.398 0.17,0.423 0.115,0.44 L 0,-8.1 m 23.524,-8.419 0.477,0.06 0.464,0.125 0.442,0.188 0.413,0.247 0.375,0.301 0.33,0.349 0.279,0.392 0.222,0.426 0.163,0.452 0.098,0.471 0.033,0.479 m 0,12.915 -0.033,0.478 -0.099,0.469 -0.162,0.452 -0.223,0.424 -0.279,0.39 L 25.693,2.446 25.318,2.745 24.906,2.989 24.463,3.174 24,3.297 23.524,3.354 m 20.985,-3.502 -0.054,0.483 -0.118,0.472 -0.179,0.453 -0.237,0.425 -0.291,0.389 -0.341,0.348 -0.383,0.299 -0.42,0.247 -0.448,0.188 -0.47,0.128 -0.482,0.064 m -7.636,0 L 33.003,3.303 32.565,3.202 32.144,3.046 31.746,2.838 31.377,2.582 31.043,2.282 30.751,1.941 30.503,1.567 30.305,1.164 30.159,0.739 30.068,0.299 30.033,-0.148 m 0,-12.992 0.034,-0.477 0.099,-0.468 0.165,-0.449 0.225,-0.422 0.283,-0.386 0.333,-0.342 0.379,-0.293 0.415,-0.237 0.444,-0.177 0.465,-0.112 m 8.211,0 0.442,0.028 0.434,0.086 0.42,0.141 0.398,0.193 0.37,0.244 0.335,0.289 0.295,0.33 0.25,0.366 0.201,0.394 0.148,0.418 0.094,0.433 0.036,0.441"
           style="fill:none;stroke:#191924;stroke-width:0.354;stroke-linecap:butt;stroke-linejoin:miter;stroke-miterlimit:10;stroke-dasharray:none;stroke-opacity:1"
           id="path23" />
      </g>
      <g
         id="g25"
         transform="translate(-1.0022,1.0022)">
        <path
           d="M 0,0 2.004,-2.004 M 0,-2.004 2.004,0 M 1.002,-2.42 V 0.415 M 2.42,-1.002 h -2.835"
           style="fill:none;stroke:#191924;stroke-width:0.354;stroke-linecap:butt;stroke-linejoin:miter;stroke-miterlimit:10;stroke-dasharray:none;stroke-opacity:1"
           id="path27" />
      </g>
      <g
         id="g29"
         transform="translate(800.9749,79.0259)">
        <path
           d="m 0,0 0.434,0.136 0.414,0.19 0.387,0.241 0.353,0.288 0.314,0.33 0.269,0.366 0.222,0.398 0.169,0.423 0.115,0.44 0.059,0.452 m 0,8.1 -0.069,0.486 -0.135,0.472 -0.197,0.45 -0.256,0.418 -0.311,0.38 -0.36,0.335 -0.401,0.282 -0.437,0.225 -0.462,0.164 -0.481,0.1 -0.49,0.033 m 30.419,-3.459 -0.033,0.478 -0.099,0.469 -0.162,0.452 -0.223,0.424 -0.28,0.39 -0.33,0.347 -0.375,0.299 -0.413,0.244 -0.442,0.185 -0.463,0.123 -0.477,0.057 m 0,-19.873 0.477,0.06 0.464,0.125 0.443,0.188 0.413,0.247 0.374,0.301 0.33,0.349 0.28,0.392 0.222,0.426 0.162,0.452 0.099,0.471 0.033,0.479 m 14.266,-3.474 0.441,0.028 0.435,0.086 0.42,0.141 0.398,0.193 0.37,0.244 0.335,0.289 0.295,0.33 0.25,0.366 0.201,0.394 0.148,0.418 0.093,0.432 0.037,0.442 m -14.476,0 0.033,-0.477 0.1,-0.468 0.165,-0.449 0.225,-0.422 0.282,-0.386 0.334,-0.343 0.378,-0.292 0.416,-0.237 0.444,-0.177 0.465,-0.112 M 36.185,14.712 35.738,14.666 35.301,14.565 34.88,14.41 34.482,14.202 34.113,13.946 33.779,13.645 33.486,13.305 33.239,12.93 33.04,12.528 32.895,12.103 32.803,11.663 32.769,11.215 m 14.476,0 -0.054,0.484 -0.118,0.472 -0.179,0.453 -0.237,0.424 -0.292,0.39 -0.34,0.348 -0.383,0.299 -0.42,0.246 -0.449,0.189 -0.469,0.127 -0.482,0.065"
           style="fill:none;stroke:#191924;stroke-width:0.354;stroke-linecap:butt;stroke-linejoin:miter;stroke-miterlimit:10;stroke-dasharray:none;stroke-opacity:1"
           id="path31" />
      </g>
      <g
         id="g33"
         transform="translate(-1.0022,1.0022)">
        <path
           d="M 0,0 2.004,-2.004 M 0,-2.004 2.004,0 M 1.002,-2.42 V 0.415 M 2.42,-1.002 h -2.835"
           style="fill:none;stroke:#c0c0c0;stroke-width:0.142;stroke-linecap:butt;stroke-linejoin:miter;stroke-miterlimit:10;stroke-dasharray:none;stroke-opacity:1"
           id="path35" />
      </g>
      <g
         id="g37"
         transform="translate(553.5997,825.0516)">
        <path
           d="m 0,0 v -14.025 m 0,0 h 81.265 m 0,0 V 0"
           style="fill:none;stroke:#000000;stroke-width:0.142;stroke-linecap:round;stroke-linejoin:round;stroke-miterlimit:10;stroke-dasharray:none;stroke-opacity:1"
           id="path39" />
      </g>
      <g
         id="g41"
         transform="translate(975.2495,23.9993)">
        <path
           d="m 0,0 h 8.547 m 14.759,-3.642 v 7.348 m 0,0 -11.021,-1.837 m 0,0 v -3.674 m 0,0 11.021,-1.837 M 4.481,4.029 v -8.087 m 20.273,4.09 H 10.336"
           style="fill:none;stroke:#191924;stroke-width:0.354;stroke-linecap:round;stroke-linejoin:round;stroke-miterlimit:10;stroke-dasharray:none;stroke-opacity:1"
           id="path43" />
      </g>
      <g
         id="g53"
         transform="translate(637.7953,113.5556)">
        <path
           d="m 0,0 v -99.213 m 297.638,19.843 v -19.843 m -921.26,810.709 H 538.583 m -1162.205,0 V -99.213 m 0,0 H 538.583 m 0,810.709 V -99.213 m 0,99.213 H 14.173 m 524.41,-79.37 H 14.173 m 0,79.37 V -99.213 M 233.858,0 V -99.213 M -411.024,0 V -99.213 M 325.984,0 V -99.213 M 184.252,-79.37 v -19.843 m 189.042,19.843 v -19.843 m 85.039,19.843 v -19.843 m 42.52,19.843 v -19.843"
           style="fill:none;stroke:#191924;stroke-width:1.417;stroke-linecap:round;stroke-linejoin:round;stroke-miterlimit:10;stroke-dasharray:none;stroke-opacity:1"
           id="path55" />
      </g>
      <g
         id="g57"
         transform="translate(651.9685,113.5556)">
        <path
           d="m 0,0 h -637.795 m 212.882,-85.039 v -14.174 m 410.74,14.174 v -14.174 m -410.74,0 h 34.015 m 0,0 h 290.552 m 0,0 h 45.354 m 0,0 h 40.819"
           style="fill:none;stroke:#191924;stroke-width:1.417;stroke-linecap:round;stroke-linejoin:round;stroke-miterlimit:10;stroke-dasharray:none;stroke-opacity:1"
           id="path59" />
      </g>
      <g
         id="g61"
         transform="translate(226.7717,60.387)">
        <path
           d="M 0,0 H 411.024 M 0,10.205 H 411.024 M 0,20.409 H 411.024 M 0,40.819 H 411.024 M 0,30.614 h 411.024"
           style="fill:none;stroke:#191924;stroke-width:0.51;stroke-linecap:round;stroke-linejoin:round;stroke-miterlimit:10;stroke-dasharray:none;stroke-opacity:1"
           id="path63" />
      </g>
      <g
         id="g65"
         transform="translate(226.7717,39.9776)">
        <path
           d="M 0,0 H 411.024 M 0,10.205 h 411.024"
           style="fill:none;stroke:#191924;stroke-width:0.51;stroke-linecap:round;stroke-linejoin:round;stroke-miterlimit:10;stroke-dasharray:none;stroke-opacity:1"
           id="path67" />
      </g>
      <g
         id="g69"
         transform="translate(261.0709,28.5162)">
        <path
           d="M 0,0 V 85.039 M 290.551,0 V 85.039 M 335.906,0 V 85.039 M 0,0 V -14.173 M 290.551,0 V -14.173 M 335.906,0 V -14.173 M -34.016,0 H 0 m 0,0 h 290.551 m 0,0 h 45.355 m 0,0 h 40.818"
           style="fill:none;stroke:#191924;stroke-width:0.51;stroke-linecap:round;stroke-linejoin:round;stroke-miterlimit:10;stroke-dasharray:none;stroke-opacity:1"
           id="path71" />
      </g>
      <g
         id="g73"
         transform="translate(797.363,93.7982)" />
      <text
         transform="matrix(0,1.000023,1,0,707.5492,439.70026)"
         style="font-variant:normal;font-weight:normal;font-stretch:normal;font-size:10.995px;font-family:ISOCPEUR;-inkscape-font-specification:ISOCPEUR;writing-mode:lr-tb;fill:#191924;fill-opacity:1;fill-rule:nonzero;stroke:none"
         id="text79"><tspan
           x="0 3.5404713 8.4993305 13.45819"
           y="0"
           sodipodi:role="line"
           id="tspan77">109</tspan></text>
      <text
         transform="matrix(1.000023,0,0,-1,567.29436,568.3421)"
         style="font-variant:normal;font-weight:normal;font-stretch:normal;font-size:10.995px;font-family:ISOCPEUR;-inkscape-font-specification:ISOCPEUR;writing-mode:lr-tb;fill:#191924;fill-opacity:1;fill-rule:nonzero;stroke:none"
         id="text83"><tspan
           x="0 3.5404713 8.4993305 13.45819"
           y="0"
           sodipodi:role="line"
           id="tspan81">160</tspan></text>
      <text
         transform="matrix(0.999869,0,0,-1,587.49152,532.01462)"
         style="font-variant:normal;font-weight:normal;font-stretch:normal;font-size:10.995px;font-family:ISOCPEUR;-inkscape-font-specification:ISOCPEUR;writing-mode:lr-tb;fill:#191924;fill-opacity:1;fill-rule:nonzero;stroke:none"
         id="text87"><tspan
           x="0 4.9580956 9.9161911"
           y="0"
           sodipodi:role="line"
           id="tspan85">95</tspan></text>
      <text
         transform="matrix(0,0.999869,1,0,667.8642,455.64451)"
         style="font-variant:normal;font-weight:normal;font-stretch:normal;font-size:10.995px;font-family:ISOCPEUR;-inkscape-font-specification:ISOCPEUR;writing-mode:lr-tb;fill:#191924;fill-opacity:1;fill-rule:nonzero;stroke:none"
         id="text91"><tspan
           x="0 4.9580956 9.9161911"
           y="0"
           sodipodi:role="line"
           id="tspan89">59</tspan></text>
      <g
         id="g97"
         transform="translate(479.5601,323.9958)">
        <path
           d="M 0,0 H 233.604"
           style="fill:none;stroke:#000000;stroke-width:0.763;stroke-linecap:butt;stroke-linejoin:miter;stroke-miterlimit:10;stroke-dasharray:none;stroke-opacity:1"
           id="path99" />
      </g>
      <text
         transform="matrix(0.999723,0,0,-1,479.5601,314.8357)"
         style="font-variant:normal;font-weight:normal;font-stretch:normal;font-size:10.995px;font-family:ISOCPEUR;-inkscape-font-specification:ISOCPEUR;writing-mode:lr-tb;fill:#191924;fill-opacity:1;fill-rule:nonzero;stroke:none"
         id="text103"><tspan
           x="0 4.9573712 10.62922 16.301069 21.972918 26.226803 31.184175 36.856022 42.52787 47.485245 49.606689 75.130005 80.801857 86.473701 88.595154 94.266998 98.520889 104.89622 111.27155 116.22893 121.90077 126.85815 128.9796 133.23347 136.77289 141.02678 145.98415 150.94151 172.21095 177.8828 183.55464 185.67609 191.34795 195.60182 201.97716 208.35249 214.02434 219.6962 221.81764 226.07153 229.61093 233.86482 238.82219"
           y="0"
           sodipodi:role="line"
           id="tspan101">COST CODE: UNIT VALUE: 1 kg UNIT MASS: 1 kg</tspan></text>
      <text
         transform="matrix(0.999752,0,0,-1,479.5601,304.91821)"
         style="font-variant:normal;font-weight:normal;font-stretch:normal;font-size:10.995px;font-family:ISOCPEUR;-inkscape-font-specification:ISOCPEUR;writing-mode:lr-tb;fill:#191924;fill-opacity:1;fill-rule:nonzero;stroke:none"
         id="text107"><tspan
           x="0 5.6720128 10.629528 15.587044 21.259056 23.380566 29.052578 34.72459 36.8461 66.624168 70.163681 75.121193 79.375206 85.047218 90.00473 94.258743 99.216255 103.47027 107.00978 111.96729 116.92481 142.44887 147.40639 152.36391 158.03592 163.70793 169.37994 175.05196 177.17346 181.42747 184.96698 189.9245"
           y="0"
           sodipodi:role="line"
           id="tspan105">SECTION: 10 PL x 109 LENGTH: 160</tspan></text>
      <text
         transform="matrix(0.999688,0,0,-1,479.5601,295.00072)"
         style="font-variant:normal;font-weight:normal;font-stretch:normal;font-size:10.995px;font-family:ISOCPEUR;-inkscape-font-specification:ISOCPEUR;writing-mode:lr-tb;fill:#191924;fill-opacity:1;fill-rule:nonzero;stroke:none"
         id="text111"><tspan
           x="0 5.6716499 11.3433 17.71841 23.39006 28.347258 30.468632 64.498528 69.455727 74.412926"
           y="0"
           sodipodi:role="line"
           id="tspan109">GRADE: 250</tspan></text>
      <text
         transform="matrix(0.999711,0,0,-1,479.5601,285.08323)"
         style="font-variant:normal;font-weight:normal;font-stretch:normal;font-size:10.995px;font-family:ISOCPEUR;-inkscape-font-specification:ISOCPEUR;writing-mode:lr-tb;fill:#191924;fill-opacity:1;fill-rule:nonzero;stroke:none"
         id="text115"><tspan
           x="0 5.6717806 12.047037 14.168459 19.840239 25.51202 29.765856 35.437637 41.109417 46.066727 52.441986 58.113766 64.489021 69.446335 75.118118 80.789894 82.911316 95.672821 101.3446 106.30192"
           y="0"
           sodipodi:role="line"
           id="tspan113">PAINT TREATMENT: N/A</tspan></text>
      <text
         transform="matrix(0.73620995,0,0,-1,890.5228,15.8643)"
         style="font-variant:normal;font-weight:normal;font-stretch:normal;font-size:15.393px;font-family:ISOCPEUR;-inkscape-font-specification:ISOCPEUR;writing-mode:lr-tb;fill:#191924;fill-opacity:1;fill-rule:nonzero;stroke:none"
         id="text123"><tspan
           x="0 4.9522982 7.9206014 14.856894 20.80888 28.744862 31.713165 39.649147 42.617447 50.553429"
           y="0"
           sodipodi:role="line"
           id="tspan121">1:5 U.O.N.</tspan></text>
      <text
         transform="matrix(0.73601503,0,0,-1,1150.7213,15.599298)"
         style="font-variant:normal;font-weight:normal;font-stretch:normal;font-size:13.194px;font-family:ISOCPEUR;-inkscape-font-specification:ISOCPEUR;writing-mode:lr-tb;fill:#191924;fill-opacity:1;fill-rule:nonzero;stroke:none"
         id="text139"><tspan
           x="0 5.9438114"
           y="0"
           sodipodi:role="line"
           id="tspan137">0</tspan></text>
      <text
         transform="matrix(0.73641966,0,0,-1,933.7591,36.3004)"
         style="font-variant:normal;font-weight:normal;font-stretch:normal;font-size:8.796px;font-family:ISOCPEUR;-inkscape-font-specification:ISOCPEUR;writing-mode:lr-tb;fill:#191924;fill-opacity:1;fill-rule:nonzero;stroke:none"
         id="text147"><tspan
           x="0 3.964699 7.9293981 11.894097 15.858796 18.689468 22.654167 26.618866 30.583567 34.548264"
           y="0"
           sodipodi:role="line"
           id="tspan141">27/01/2022</tspan><tspan
           x="0 3.964699 7.9293981 11.894097 15.858796 18.689468 22.654167 26.618866 30.583567 34.548264"
           y="-38.719994"
           sodipodi:role="line"
           id="tspan143">27/01/2022</tspan><tspan
           x="-0.94996798 3.0147312 6.9794302 10.944129 13.774801 17.7395 21.704199 25.6689 29.633598 33.598297"
           y="-58.862831"
           sodipodi:role="line"
           id="tspan145">27/10/2020</tspan></text>
      <text
         transform="matrix(0.73641966,0,0,-1,560.90287,30.222364)"
         style="font-variant:normal;font-weight:normal;font-stretch:normal;font-size:8.796px;font-family:ISOCPEUR;-inkscape-font-specification:ISOCPEUR;writing-mode:lr-tb;fill:#191924;fill-opacity:1;fill-rule:nonzero;stroke:none"
         id="text161"><tspan
           x="0 3.964699 7.9293981 11.894097 15.858796 18.689468 22.654167 26.618866 30.583567 34.548264"
           y="0"
           sodipodi:role="line"
           id="tspan159">27/01/2022</tspan></text>
      <text
         transform="matrix(0.7357786,0,0,-1,267.28987,30.310324)"
         style="font-variant:normal;font-weight:normal;font-stretch:normal;font-size:8.796px;font-family:ISOCPEUR;-inkscape-font-specification:ISOCPEUR;writing-mode:lr-tb;fill:#191924;fill-opacity:1;fill-rule:nonzero;stroke:none"
         id="text169"><tspan
           x="0 1.6951681 6.2273273 10.759487 15.291646 19.252893 23.785053 27.184174 31.14542 35.677582 40.20974 43.60886 47.570107 52.102264 56.634426 61.166584 65.698746 70.230904 74.763062 78.724312 83.25647 84.951637 89.483795"
           y="0"
           sodipodi:role="line"
           id="tspan167">ISSUED FOR CONSTRUCTION</tspan></text>
      <text
         transform="matrix(0.73601734,0,0,-1,241.47848,30.310324)"
         style="font-variant:normal;font-weight:normal;font-stretch:normal;font-size:8.796px;font-family:ISOCPEUR;-inkscape-font-specification:ISOCPEUR;writing-mode:lr-tb;fill:#191924;fill-opacity:1;fill-rule:nonzero;stroke:none"
         id="text173"><tspan
           x="0 3.9625332"
           y="0"
           sodipodi:role="line"
           id="tspan171">0</tspan></text>
      <text
         transform="matrix(0.73603826,0,0,-1,1104.7208,15.502)"
         style="font-variant:normal;font-weight:normal;font-stretch:normal;font-size:15.393px;font-family:ISOCPEUR;-inkscape-font-specification:ISOCPEUR;writing-mode:lr-tb;fill:#191924;fill-opacity:1;fill-rule:nonzero;stroke:none"
         id="text177"><tspan
           x="0 4.9511433 10.901741 18.835871 25.770548 31.721146"
           y="0"
           sodipodi:role="line"
           id="tspan175">1 OF 1</tspan></text>
      <text
         transform="matrix(0,0.73594615,1,0,649.5621,46.2778)"
         style="font-variant:normal;font-weight:normal;font-stretch:normal;font-size:13.9636px;font-family:ISOCPEUR;-inkscape-font-specification:ISOCPEUR;writing-mode:lr-tb;fill:#191924;fill-opacity:1;fill-rule:nonzero;stroke:none"
         id="text189"><tspan
           x="0 7.1964345 13.486341 21.575357 24.267046 31.46348 34.15517 41.351604 48.548038"
           y="0"
           sodipodi:role="line"
           id="tspan187">REVISIONS</tspan></text>
      <text
         transform="matrix(0.73629173,0,0,-1,947.5385,15.903)"
         style="font-variant:normal;font-weight:normal;font-stretch:normal;font-size:13.9636px;font-family:ISOCPEUR;-inkscape-font-specification:ISOCPEUR;writing-mode:lr-tb;fill:#191924;fill-opacity:1;fill-rule:nonzero;stroke:none"
         id="text193"><tspan
           x="0 8.0928135"
           y="0"
           sodipodi:role="line"
           id="tspan191">A3</tspan></text>
      <text
         transform="matrix(0.73605492,0,0,-1,1139.9709,25.6762)"
         style="font-variant:normal;font-weight:normal;font-stretch:normal;font-size:8.796px;font-family:ISOCPEUR;-inkscape-font-specification:ISOCPEUR;writing-mode:lr-tb;fill:#191924;fill-opacity:1;fill-rule:nonzero;stroke:none"
         id="text197"><tspan
           x="0 4.5338616 8.4965973"
           y="0"
           sodipodi:role="line"
           id="tspan195">REV</tspan></text>
      <text
         transform="matrix(0.73588029,0,0,-1,1096.7666,26.230348)"
         style="font-variant:normal;font-weight:normal;font-stretch:normal;font-size:8.796px;font-family:ISOCPEUR;-inkscape-font-specification:ISOCPEUR;writing-mode:lr-tb;fill:#191924;fill-opacity:1;fill-rule:nonzero;stroke:none"
         id="text201"><tspan
           x="0 4.5327859 9.0655718 13.027367 16.989162"
           y="0"
           sodipodi:role="line"
           id="tspan199">SHEET</tspan></text>
      <text
         transform="matrix(0.73586481,0,0,-1,1012.7171,26.230348)"
         style="font-variant:normal;font-weight:normal;font-stretch:normal;font-size:8.796px;font-family:ISOCPEUR;-inkscape-font-specification:ISOCPEUR;writing-mode:lr-tb;fill:#191924;fill-opacity:1;fill-rule:nonzero;stroke:none"
         id="text205"><tspan
           x="0 4.5326905 9.0653811 14.160265 20.388323 22.083689 26.616379 31.149071 34.548588 39.08128 43.613968"
           y="0"
           sodipodi:role="line"
           id="tspan203">DRAWING NO.</tspan></text>
      <text
         transform="matrix(0.73583902,0,0,-1,874.02372,105.85174)"
         style="font-variant:normal;font-weight:normal;font-stretch:normal;font-size:8.796px;font-family:ISOCPEUR;-inkscape-font-specification:ISOCPEUR;writing-mode:lr-tb;fill:#191924;fill-opacity:1;fill-rule:nonzero;stroke:none"
         id="text209"><tspan
           x="0 4.5325317 9.0650635 14.159769 20.387608"
           y="0"
           sodipodi:role="line"
           id="tspan207">DRAWN</tspan></text>
      <text
         transform="matrix(0.73601882,0,0,-1,874.02372,85.858432)"
         style="font-variant:normal;font-weight:normal;font-stretch:normal;font-size:8.796px;font-family:ISOCPEUR;-inkscape-font-specification:ISOCPEUR;writing-mode:lr-tb;fill:#191924;fill-opacity:1;fill-rule:nonzero;stroke:none"
         id="text213"><tspan
           x="0 3.9625411 8.4961805 12.458721 16.421263 20.954901 24.917442"
           y="0"
           sodipodi:role="line"
           id="tspan211">CHECKED</tspan></text>
      <text
         transform="matrix(0.73595987,0,0,-1,874.02372,66.014656)"
         style="font-variant:normal;font-weight:normal;font-stretch:normal;font-size:8.796px;font-family:ISOCPEUR;-inkscape-font-specification:ISOCPEUR;writing-mode:lr-tb;fill:#191924;fill-opacity:1;fill-rule:nonzero;stroke:none"
         id="text217"><tspan
           x="0 3.9622238 8.4954996 13.028775 14.724361 19.257637 23.21986 27.182085 31.715361 33.410946 37.944221"
           y="0"
           sodipodi:role="line"
           id="tspan215">ENGINEERING</tspan></text>
      <text
         transform="matrix(0.73584345,0,0,-1,874.02372,46.241248)"
         style="font-variant:normal;font-weight:normal;font-stretch:normal;font-size:8.796px;font-family:ISOCPEUR;-inkscape-font-specification:ISOCPEUR;writing-mode:lr-tb;fill:#191924;fill-opacity:1;fill-rule:nonzero;stroke:none"
         id="text221"><tspan
           x="0 5.0947366 9.6272955 14.159854 18.692413 23.224972 28.319708 32.281303"
           y="0"
           sodipodi:role="line"
           id="tspan219">APPROVED</tspan></text>
      <text
         transform="matrix(0.73601882,0,0,-1,936.95714,26.195164)"
         style="font-variant:normal;font-weight:normal;font-stretch:normal;font-size:8.796px;font-family:ISOCPEUR;-inkscape-font-specification:ISOCPEUR;writing-mode:lr-tb;fill:#191924;fill-opacity:1;fill-rule:nonzero;stroke:none"
         id="text225"><tspan
           x="0 4.533639 6.2293606 10.763"
           y="0"
           sodipodi:role="line"
           id="tspan223">SIZE</tspan></text>
      <text
         transform="matrix(0.73618092,0,0,-1,874.02372,26.195164)"
         style="font-variant:normal;font-weight:normal;font-stretch:normal;font-size:8.796px;font-family:ISOCPEUR;-inkscape-font-specification:ISOCPEUR;writing-mode:lr-tb;fill:#191924;fill-opacity:1;fill-rule:nonzero;stroke:none"
         id="text229"><tspan
           x="0 4.5346375 8.4980516 13.595124 17.558538"
           y="0"
           sodipodi:role="line"
           id="tspan227">SCALE</tspan></text>
      <text
         transform="matrix(0.73581397,0,0,-1,824.04641,26.195164)"
         style="font-variant:normal;font-weight:normal;font-stretch:normal;font-size:8.796px;font-family:ISOCPEUR;-inkscape-font-specification:ISOCPEUR;writing-mode:lr-tb;fill:#191924;fill-opacity:1;fill-rule:nonzero;stroke:none"
         id="text233"><tspan
           x="0 4.5323772 9.0647545 13.597132 16.996414 20.957853 24.919291 29.451668 32.850952 37.383327"
           y="0"
           sodipodi:role="line"
           id="tspan231">PROJECT No</tspan></text>
      <text
         transform="matrix(0.73614997,0,0,-1,654.38542,26.195164)"
         style="font-variant:normal;font-weight:normal;font-stretch:normal;font-size:8.796px;font-family:ISOCPEUR;-inkscape-font-specification:ISOCPEUR;writing-mode:lr-tb;fill:#191924;fill-opacity:1;fill-rule:nonzero;stroke:none"
         id="text237"><tspan
           x="0 3.9632473 7.9264946 9.6225185 13.585765 18.120213"
           y="0"
           sodipodi:role="line"
           id="tspan235">CLIENT</tspan></text>
      <text
         transform="matrix(0.73605492,0,0,-1,235.878,17.7569)"
         style="font-variant:normal;font-weight:normal;font-stretch:normal;font-size:8.796px;font-family:ISOCPEUR;-inkscape-font-specification:ISOCPEUR;writing-mode:lr-tb;fill:#191924;fill-opacity:1;fill-rule:nonzero;stroke:none"
         id="text249"><tspan
           x="0 4.5338616 8.4965973"
           y="0"
           sodipodi:role="line"
           id="tspan247">REV</tspan></text>
      <text
         transform="matrix(0.73588029,0,0,-1,379.07584,18.099944)"
         style="font-variant:normal;font-weight:normal;font-stretch:normal;font-size:8.796px;font-family:ISOCPEUR;-inkscape-font-specification:ISOCPEUR;writing-mode:lr-tb;fill:#191924;fill-opacity:1;fill-rule:nonzero;stroke:none"
         id="text253"><tspan
           x="0 4.5327859 8.4945812 13.027367 16.989162 21.521948 23.21735 27.750135 32.282921 33.978325 38.511108"
           y="0"
           sodipodi:role="line"
           id="tspan251">DESCRIPTION</tspan></text>
      <text
         transform="matrix(0.73593555,0,0,-1,563.38457,17.7569)"
         style="font-variant:normal;font-weight:normal;font-stretch:normal;font-size:8.796px;font-family:ISOCPEUR;-inkscape-font-specification:ISOCPEUR;writing-mode:lr-tb;fill:#191924;fill-opacity:1;fill-rule:nonzero;stroke:none"
         id="text257"><tspan
           x="0 4.5331264 9.6285 14.161627"
           y="0"
           sodipodi:role="line"
           id="tspan255">DATE</tspan></text>
      <text
         transform="matrix(0.73609839,0,0,-1,607.47037,18.099944)"
         style="font-variant:normal;font-weight:normal;font-stretch:normal;font-size:8.796px;font-family:ISOCPEUR;-inkscape-font-specification:ISOCPEUR;writing-mode:lr-tb;fill:#191924;fill-opacity:1;fill-rule:nonzero;stroke:none"
         id="text261"><tspan
           x="0 4.5341291 9.6306314 14.727133"
           y="0"
           sodipodi:role="line"
           id="tspan259">NAME</tspan></text>
      <text
         transform="matrix(0.999643,0,0,-1,20.4903,103.7795)"
         style="font-variant:normal;font-weight:normal;font-stretch:normal;font-size:8.796px;font-family:ISOCPEUR;-inkscape-font-specification:ISOCPEUR;writing-mode:lr-tb;fill:#191924;fill-opacity:1;fill-rule:nonzero;stroke:none"
         id="text281"><tspan
           x="0 4.5371156 9.0742311 13.611347 17.576927 22.114042"
           y="0"
           sodipodi:role="line"
           id="tspan279">NOTES:</tspan></text>
      <text
         transform="matrix(0.999829,0,0,-1,20.4903,82.759988)"
         style="font-variant:normal;font-weight:normal;font-stretch:normal;font-size:6.1572px;font-family:ISOCPEUR;-inkscape-font-specification:ISOCPEUR;writing-mode:lr-tb;fill:#191924;fill-opacity:1;fill-rule:nonzero;stroke:none"
         id="text293"><tspan
           x="0 2.7764223 3.9645588 6.3469877 9.9175529 12.693975 15.470398 17.852827 22.217535 24.993958 27.77038 30.946951 34.123524 36.505951 39.682526 42.859097 45.241524 48.812092 51.988663 53.970943 56.747364 59.523785 62.700359 65.082787 67.859207 70.241638 73.018059 76.588623 79.765198 80.953331 83.335762 86.512337 89.688904 92.071335 95.24791 96.436043 99.612617 100.80075 103.97733"
           y="0"
           sodipodi:role="line"
           id="tspan291">2. ALL WELDS TO AS1554 - CAT. SP U.O.N.</tspan></text>
      <g
         id="g335"
         transform="translate(619.3779,446.8546)">
        <path
           d="M 0,0 V 85.454 M -53.858,33.165 V 85.454 M 0,82.619 h -53.858 m 51.678,-1.09 4.36,2.181 m -53.858,0 -4.361,-2.181"
           style="fill:none;stroke:#191924;stroke-width:0.142;stroke-linecap:round;stroke-linejoin:round;stroke-miterlimit:10;stroke-dasharray:none;stroke-opacity:1"
           id="path337" />
      </g>
      <g
         id="g339"
         transform="translate(619.3779,446.8546)">
        <path
           d="m 0,0 v 121.785 m -90.709,-88.62 v 88.62 M 0,118.95 h -90.709 m 88.529,-1.09 4.36,2.18 m -90.708,0 -4.361,-2.18"
           style="fill:none;stroke:#191924;stroke-width:0.142;stroke-linecap:round;stroke-linejoin:round;stroke-miterlimit:10;stroke-dasharray:none;stroke-opacity:1"
           id="path341" />
      </g>
      <g
         id="g343"
         transform="translate(622.2125,415.6735)">
        <path
           d="M 0,0 H 90.709 M -53.858,61.512 H 90.709 M 87.874,0 v 61.512 m -1.09,-59.331 2.18,-4.362 m 0,61.512 -2.18,4.361"
           style="fill:none;stroke:#191924;stroke-width:0.142;stroke-linecap:round;stroke-linejoin:round;stroke-miterlimit:10;stroke-dasharray:none;stroke-opacity:1"
           id="path345" />
      </g>
      <g
         id="g347"
         transform="translate(568.3542,477.1853)">
        <path
           d="M 0,0 H 104.882 M 53.858,-33.165 h 51.024 M 102.047,0 v -33.165 m 1.091,30.985 -2.181,4.36 m 0,-33.165 2.181,-4.361"
           style="fill:none;stroke:#191924;stroke-width:0.142;stroke-linecap:round;stroke-linejoin:round;stroke-miterlimit:10;stroke-dasharray:none;stroke-opacity:1"
           id="path349" />
      </g>
      <g
         id="g351"
         transform="translate(619.3779,415.6735)">
        <path
           d="M 0,0 V 28.346 M -90.709,0 H 0 M -90.709,61.512 V 0 m 36.851,61.512 H -90.709 M 0,28.346 -53.858,61.512"
           style="fill:none;stroke:#000000;stroke-width:0.354;stroke-linecap:round;stroke-linejoin:round;stroke-miterlimit:10;stroke-dasharray:none;stroke-opacity:1"
           id="path353" />
      </g>
    </g>
  </g>
</svg>
