<?xml version="1.0" standalone="no"?>
<svg xmlns="http://www.w3.org/2000/svg" width="200" height="200" version="1.1" baseProfile="full">

  <!--path d="M150, 000 s150, 100 150, 000" /-->
  <!--path d="M000, 100 c000,-100 250, -100 150, 000 s150, 100 150, 000" /-->
  <!--path d="M000, 100 c000,-100 200, -100 150, 000 s150, 100 150, 000" /-->
  <!--path d="M000, 100 c000,-100 150, -100 150, 000 s150, 100 150, 000" /-->
  <!--path d="M000, 100 c000,-100 100, -100 150, 000 s150, 100 150, 000" /-->
  <!--path d="M000, 100 c000,-100 050, -100 150, 000 s150, 100 150, 000" /-->
  <!--path d="M000, 100 c000,-100 000, -100 150, 000 s150, 100 150, 000" /-->
  <!--path d="M000, 200 c000,-100 000, -100 150, 000 s150, 100 150, 000 150, 100 150, 000z" /-->
  <!--path d="M000, 500 C000, 400 050, 400 150, 500 S300, 600 300, 500" /-->
  <!--path d="M0 300, L 100 300, l 50 50, h -150, v 50, H 300V350z"/-->
  <!--path d="M000,250 Q150,100 300,250 T600,250" /-->
  <path id="heart" d="M 10,30 A 20,20 0,0,1 50,30"/> <!--A 20,20 0,0,1 90,30 Q 90,60 50,90 Q 10,60 10,30 z" /-->
</svg>
